<mxfile host="app.diagrams.net" modified="2024-01-01T16:36:12.519Z" agent="Mozilla/5.0 (Windows NT 10.0; Win64; x64) AppleWebKit/537.36 (KHTML, like Gecko) Chrome/120.0.0.0 Safari/537.36" etag="gRpPE5owkh2s8iKclR2Q" version="22.1.15" type="google">
  <diagram name="Page-1" id="wWFaziQFNTHF0SBOGpUx">
    <mxGraphModel grid="1" page="1" gridSize="10" guides="1" tooltips="1" connect="1" arrows="1" fold="1" pageScale="1" pageWidth="1100" pageHeight="850" math="0" shadow="0">
      <root>
        <mxCell id="0" />
        <mxCell id="1" parent="0" />
        <mxCell id="_bJk_URfUbzhVvXRv88F-1" value="LinkedIn" style="ellipse;whiteSpace=wrap;html=1;aspect=fixed;" vertex="1" parent="1">
          <mxGeometry x="400" y="160" width="80" height="80" as="geometry" />
        </mxCell>
        <mxCell id="_bJk_URfUbzhVvXRv88F-2" value="Indeed" style="ellipse;whiteSpace=wrap;html=1;aspect=fixed;" vertex="1" parent="1">
          <mxGeometry x="640" y="160" width="80" height="80" as="geometry" />
        </mxCell>
        <mxCell id="_bJk_URfUbzhVvXRv88F-3" value="processed&lt;br&gt;data" style="shape=cylinder3;whiteSpace=wrap;html=1;boundedLbl=1;backgroundOutline=1;size=15;" vertex="1" parent="1">
          <mxGeometry x="520" y="280" width="80" height="80" as="geometry" />
        </mxCell>
        <mxCell id="_bJk_URfUbzhVvXRv88F-5" style="edgeStyle=orthogonalEdgeStyle;rounded=0;orthogonalLoop=1;jettySize=auto;html=1;exitX=1;exitY=1;exitDx=0;exitDy=0;entryX=0.145;entryY=0;entryDx=0;entryDy=4.35;entryPerimeter=0;" edge="1" parent="1" source="_bJk_URfUbzhVvXRv88F-1" target="_bJk_URfUbzhVvXRv88F-3">
          <mxGeometry relative="1" as="geometry" />
        </mxCell>
        <mxCell id="_bJk_URfUbzhVvXRv88F-6" style="edgeStyle=orthogonalEdgeStyle;rounded=0;orthogonalLoop=1;jettySize=auto;html=1;exitX=0;exitY=1;exitDx=0;exitDy=0;entryX=0.855;entryY=0;entryDx=0;entryDy=4.35;entryPerimeter=0;" edge="1" parent="1" source="_bJk_URfUbzhVvXRv88F-2" target="_bJk_URfUbzhVvXRv88F-3">
          <mxGeometry relative="1" as="geometry" />
        </mxCell>
        <mxCell id="_bJk_URfUbzhVvXRv88F-8" value="sources" style="text;html=1;align=center;verticalAlign=middle;resizable=0;points=[];autosize=1;strokeColor=none;fillColor=none;" vertex="1" parent="1">
          <mxGeometry x="260" y="185" width="70" height="30" as="geometry" />
        </mxCell>
        <mxCell id="_bJk_URfUbzhVvXRv88F-17" style="edgeStyle=orthogonalEdgeStyle;rounded=0;orthogonalLoop=1;jettySize=auto;html=1;exitX=0.5;exitY=1;exitDx=0;exitDy=0;exitPerimeter=0;entryX=0;entryY=0.5;entryDx=0;entryDy=0;" edge="1" parent="1" source="_bJk_URfUbzhVvXRv88F-9" target="_bJk_URfUbzhVvXRv88F-16">
          <mxGeometry relative="1" as="geometry" />
        </mxCell>
        <mxCell id="_bJk_URfUbzhVvXRv88F-9" value="extracted data" style="shape=cylinder3;whiteSpace=wrap;html=1;boundedLbl=1;backgroundOutline=1;size=15;" vertex="1" parent="1">
          <mxGeometry x="520" y="440" width="80" height="80" as="geometry" />
        </mxCell>
        <mxCell id="_bJk_URfUbzhVvXRv88F-10" style="edgeStyle=orthogonalEdgeStyle;rounded=0;orthogonalLoop=1;jettySize=auto;html=1;exitX=0.5;exitY=1;exitDx=0;exitDy=0;exitPerimeter=0;entryX=0.5;entryY=0;entryDx=0;entryDy=0;entryPerimeter=0;" edge="1" parent="1" source="_bJk_URfUbzhVvXRv88F-3" target="_bJk_URfUbzhVvXRv88F-9">
          <mxGeometry relative="1" as="geometry" />
        </mxCell>
        <mxCell id="_bJk_URfUbzhVvXRv88F-11" value="keyword extraction:&lt;br&gt;keyBERT, spaCy" style="edgeLabel;html=1;align=center;verticalAlign=middle;resizable=0;points=[];" connectable="0" vertex="1" parent="_bJk_URfUbzhVvXRv88F-10">
          <mxGeometry x="-0.175" relative="1" as="geometry">
            <mxPoint as="offset" />
          </mxGeometry>
        </mxCell>
        <mxCell id="_bJk_URfUbzhVvXRv88F-12" value="scrape" style="text;html=1;align=center;verticalAlign=middle;resizable=0;points=[];autosize=1;strokeColor=none;fillColor=none;" vertex="1" parent="1">
          <mxGeometry x="530" y="210" width="60" height="30" as="geometry" />
        </mxCell>
        <mxCell id="_bJk_URfUbzhVvXRv88F-14" value="word cloud" style="ellipse;shape=cloud;whiteSpace=wrap;html=1;" vertex="1" parent="1">
          <mxGeometry x="360" y="560" width="120" height="80" as="geometry" />
        </mxCell>
        <mxCell id="_bJk_URfUbzhVvXRv88F-16" value="word matching" style="shape=process;whiteSpace=wrap;html=1;backgroundOutline=1;" vertex="1" parent="1">
          <mxGeometry x="640" y="560" width="120" height="80" as="geometry" />
        </mxCell>
        <mxCell id="_bJk_URfUbzhVvXRv88F-18" style="edgeStyle=orthogonalEdgeStyle;rounded=0;orthogonalLoop=1;jettySize=auto;html=1;exitX=0.5;exitY=1;exitDx=0;exitDy=0;exitPerimeter=0;entryX=0.875;entryY=0.5;entryDx=0;entryDy=0;entryPerimeter=0;" edge="1" parent="1" source="_bJk_URfUbzhVvXRv88F-9" target="_bJk_URfUbzhVvXRv88F-14">
          <mxGeometry relative="1" as="geometry">
            <Array as="points">
              <mxPoint x="560" y="600" />
            </Array>
          </mxGeometry>
        </mxCell>
      </root>
    </mxGraphModel>
  </diagram>
</mxfile>
